<?xml version="1.0" standalone="no"?>
<!DOCTYPE svg PUBLIC "-//W3C//DTD SVG 20010904//EN"
 "http://www.w3.org/TR/2001/REC-SVG-20010904/DTD/svg10.dtd">
<svg version="1.0" xmlns="http://www.w3.org/2000/svg"
 width="1024.000000pt" height="1024.000000pt" viewBox="0 0 1024.000000 1024.000000"
 preserveAspectRatio="xMidYMid meet">

<g transform="translate(0.000000,1024.000000) scale(0.100000,-0.100000)"
fill="#000000" stroke="none">
<path d="M0 5120 l0 -5120 5120 0 5120 0 0 5120 0 5120 -5120 0 -5120 0 0
-5120z m6690 4346 c0 -8 -4 -17 -9 -21 -12 -7 -24 12 -16 25 9 15 25 12 25 -4z
m649 0 c17 -20 10 -67 -12 -80 -23 -15 -71 11 -75 41 -6 42 60 72 87 39z
m-1049 -101 c0 -8 -7 -15 -15 -15 -16 0 -20 12 -8 23 11 12 23 8 23 -8z m-574
-96 c10 -17 -13 -36 -27 -22 -12 12 -4 33 11 33 5 0 12 -5 16 -11z m465 -15
c118 -60 114 -241 -5 -295 -72 -32 -135 -19 -190 40 -24 25 -31 42 -34 90 -10
141 109 227 229 165z m536 -46 c-2 -13 -4 -5 -4 17 -1 22 1 32 4 23 2 -10 2
-28 0 -40z m508 -8 c3 -6 -1 -13 -10 -16 -19 -8 -30 0 -20 15 8 14 22 14 30 1z
m-210 -10 c3 -5 -1 -10 -10 -10 -9 0 -13 5 -10 10 3 6 8 10 10 10 2 0 7 -4 10
-10z m689 -46 c20 -19 5 -54 -24 -54 -29 0 -44 35 -24 54 8 9 19 16 24 16 5 0
16 -7 24 -16z m-2384 -9 c0 -8 -7 -15 -15 -15 -16 0 -20 12 -8 23 11 12 23 8
23 -8z m1198 -3 c2 -7 -3 -12 -12 -12 -9 0 -16 7 -16 16 0 17 22 14 28 -4z
m1656 -6 c9 -13 7 -20 -8 -32 -26 -19 -33 -18 -46 5 -7 15 -6 24 6 36 19 18
33 16 48 -9z m-2609 -71 c28 -27 30 -37 14 -68 -16 -29 -28 -37 -61 -37 -55 0
-79 69 -38 110 27 27 56 25 85 -5z m1991 -16 c7 -12 -15 -31 -28 -23 -4 3 -8
12 -8 20 0 17 26 19 36 3z m-2426 -83 l0 -53 -152 -7 c-365 -16 -648 -66 -969
-170 -608 -198 -1078 -481 -1529 -919 -163 -159 -284 -299 -434 -501 l-122
-165 -38 51 -37 51 32 46 c364 514 799 914 1310 1203 457 260 961 431 1449
492 159 20 186 22 353 24 l137 2 0 -54z m2720 38 c0 -8 -4 -12 -10 -9 -5 3
-10 10 -10 16 0 5 5 9 10 9 6 0 10 -7 10 -16z m-1180 -4 c0 -5 -7 -10 -16 -10
-8 0 -12 5 -9 10 3 6 10 10 16 10 5 0 9 -4 9 -10z m-302 -50 c78 -40 224 -190
184 -190 -5 0 -19 12 -33 26 -43 46 -165 121 -218 134 l-51 12 18 24 c22 30
27 30 100 -6z m452 20 c0 -5 -4 -10 -10 -10 -5 0 -10 5 -10 10 0 6 5 10 10 10
6 0 10 -4 10 -10z m393 -4 c130 -47 229 -187 307 -433 l33 -103 38 0 c22 0 39
-5 39 -10 0 -6 15 -17 32 -25 l33 -13 -63 -12 c-34 -7 -62 -14 -62 -15 0 -1
11 -57 25 -125 14 -68 25 -124 25 -125 0 -1 20 0 45 3 36 4 45 1 45 -11 0 -10
-15 -17 -46 -22 l-45 -6 6 -47 c3 -26 10 -76 16 -112 5 -36 10 -75 12 -87 2
-18 12 -10 61 49 33 40 62 66 64 60 2 -6 -17 -42 -41 -80 l-45 -70 116 -43
c134 -49 301 -121 350 -149 l33 -20 28 33 c58 65 143 183 167 230 83 161 4
238 -268 263 -53 5 -78 11 -78 20 0 7 -3 19 -6 28 -5 14 4 16 64 16 145 0 305
-46 364 -106 136 -135 21 -347 -450 -825 l-114 -117 21 -21 c12 -12 26 -33 31
-47 15 -37 12 -131 -4 -162 -30 -57 -103 -102 -167 -102 -39 0 -123 45 -144
77 l-16 24 -72 -63 c-40 -35 -125 -104 -189 -152 -64 -48 -128 -98 -141 -110
-14 -13 -33 -26 -42 -30 -39 -14 -2 -17 87 -7 130 16 133 17 145 48 l11 28 1
-29 c1 -21 5 -27 16 -22 9 3 47 13 84 22 67 16 69 18 75 53 3 20 6 65 6 100
l0 64 33 -25 c29 -23 32 -32 37 -89 5 -64 5 -64 35 -62 l30 2 -32 -14 c-27
-13 -33 -21 -33 -48 0 -17 -3 -62 -6 -99 -7 -67 -7 -67 17 -61 13 4 35 14 49
24 14 9 85 56 159 103 73 48 168 113 210 145 89 68 191 174 191 199 0 37 -100
212 -178 312 l-27 35 45 -40 c25 -21 65 -69 89 -105 47 -70 146 -272 182 -370
12 -33 26 -60 31 -60 18 0 94 58 141 109 27 28 60 77 74 108 33 73 29 156 -13
240 -33 64 -173 217 -262 284 -31 24 -60 48 -64 54 -7 10 19 45 34 45 19 0
135 -96 218 -179 100 -100 153 -183 176 -271 42 -164 -30 -303 -223 -430 -78
-51 -262 -133 -389 -173 -63 -20 -350 -85 -450 -103 -18 -3 -22 -19 -42 -151
-13 -81 -25 -160 -28 -175 -5 -24 -2 -29 32 -43 31 -13 204 -59 297 -79 10 -3
20 1 23 8 5 13 -9 206 -22 299 -8 57 9 64 30 13 19 -45 46 -206 46 -273 0 -48
2 -53 26 -59 14 -4 59 -4 99 -2 134 9 222 71 266 188 25 67 34 197 21 300 -6
51 -6 79 1 88 15 18 21 5 42 -91 26 -119 18 -273 -18 -352 -36 -78 -85 -127
-161 -161 -52 -24 -77 -29 -167 -32 l-107 -4 -6 -52 c-12 -96 -69 -186 -139
-223 -37 -18 -144 -19 -189 0 -21 9 -38 24 -41 37 -5 21 -4 21 31 14 104 -24
182 -1 227 68 25 38 59 144 50 158 -2 4 -29 10 -58 14 -30 3 -108 20 -173 37
-155 41 -179 45 -170 30 8 -12 -30 -137 -44 -146 -10 -6 -1 66 15 123 7 23 10
44 7 46 -4 2 -52 18 -107 36 -158 51 -427 165 -581 245 l-141 73 -114 -60
c-133 -71 -300 -144 -454 -200 -192 -69 -477 -155 -578 -174 l-98 -18 6 -30
c32 -160 106 -224 230 -198 34 7 54 7 63 0 26 -22 -61 -68 -128 -68 -114 0
-207 98 -226 238 l-6 50 -102 -5 c-234 -12 -375 63 -423 225 -25 85 -21 245 9
346 30 102 54 117 42 25 -16 -119 -11 -298 10 -353 25 -66 85 -129 149 -157
56 -25 176 -32 268 -16 l46 8 6 82 c7 92 38 222 67 276 24 45 25 28 5 -94 -15
-88 -21 -255 -9 -255 18 0 221 55 286 78 67 23 77 29 73 47 -10 42 -45 276
-45 298 0 22 -7 25 -162 51 -377 65 -663 183 -818 336 -194 192 -171 394 71
625 95 90 212 175 241 175 14 0 37 -37 26 -44 -146 -100 -316 -269 -356 -352
-36 -78 -38 -186 -3 -252 67 -130 213 -228 481 -322 135 -48 367 -106 378 -96
3 4 0 6 -6 6 -6 0 -91 53 -189 118 -176 117 -273 197 -334 273 l-31 39 31 67
c36 77 100 168 166 236 71 74 65 48 -9 -40 -36 -43 -87 -120 -113 -171 l-48
-93 70 -67 c109 -105 493 -367 560 -382 l35 -8 0 85 0 85 -30 11 c-36 14 -39
27 -6 27 21 0 24 5 30 61 6 50 13 68 37 91 35 36 38 31 41 -82 l3 -85 78 -16
c42 -9 77 -16 77 -15 0 0 -7 26 -15 56 -18 66 -18 63 -4 58 7 -2 21 -31 33
-63 l21 -60 60 -12 c132 -26 147 -52 21 -35 -36 5 -66 7 -66 6 0 -17 56 -147
64 -149 6 -2 64 -9 128 -15 96 -10 116 -15 111 -27 -3 -8 0 -19 8 -24 9 -5
-32 -9 -104 -9 l-117 0 35 -69 c19 -38 39 -72 44 -75 16 -11 371 156 371 174
0 3 -38 24 -85 48 -165 84 -436 281 -612 443 l-44 40 7 60 c4 32 9 59 12 59 2
0 48 -35 101 -79 330 -270 412 -328 615 -440 l130 -71 115 66 c207 120 436
280 591 414 47 40 106 89 132 107 30 22 49 44 53 62 14 63 109 141 172 141 23
0 60 32 208 180 98 98 177 181 175 183 -27 25 -385 173 -460 190 l-26 6 4
-278 c4 -271 4 -279 -15 -285 -11 -4 -33 -19 -49 -35 l-28 -29 -34 52 c-49 74
-168 218 -269 326 -94 100 -264 253 -272 245 -2 -3 4 -12 15 -20 18 -15 18
-15 0 -13 -10 2 -31 13 -45 26 -14 13 -44 39 -66 58 l-40 35 40 -24 c22 -13
46 -27 54 -32 9 -5 12 -4 8 2 -9 15 -194 136 -201 132 -3 -2 -11 5 -19 15 -8
11 -17 15 -20 9 -4 -6 14 -23 38 -39 25 -15 43 -29 42 -30 -1 -2 -38 10 -81
25 -78 28 -79 28 -55 44 13 10 19 17 14 17 -9 0 -89 -56 -217 -151 l-58 -43
20 -30 c10 -17 27 -33 36 -35 14 -2 16 3 11 34 -4 26 -3 35 6 32 7 -2 13 -13
15 -25 2 -14 8 -20 15 -15 17 11 31 10 40 -2 5 -6 7 -4 6 5 -1 8 -1 31 0 50 1
35 16 32 23 -5 6 -33 33 -24 36 13 4 43 28 41 36 -4 6 -29 10 -33 22 -24 8 7
14 23 14 36 0 24 19 34 22 12 0 -7 2 -17 3 -23 2 -5 3 -20 4 -32 l1 -23 25 22
c14 12 25 28 25 35 0 7 5 13 10 13 6 0 10 -16 10 -35 0 -41 12 -45 28 -10 16
34 32 32 32 -4 0 -31 25 -49 34 -25 3 8 12 14 21 14 8 0 15 5 15 11 0 8 5 8
15 -1 13 -11 12 -15 -10 -36 -32 -30 -32 -36 3 -28 15 3 32 6 39 6 6 1 9 7 6
15 -6 15 6 17 25 4 11 -7 9 -13 -8 -29 -12 -11 -19 -26 -15 -32 5 -8 15 -5 31
11 l24 22 0 -22 c0 -12 -5 -31 -10 -42 -14 -26 12 -26 50 1 15 11 30 17 34 13
12 -12 6 -32 -13 -38 -11 -3 -22 -12 -25 -20 -7 -20 28 -20 48 1 10 10 24 13
37 9 16 -5 18 -9 9 -15 -7 -4 -10 -15 -7 -23 4 -12 1 -14 -11 -10 -14 5 -15 4
-4 -8 10 -11 16 -11 32 -1 16 9 26 10 42 1 20 -11 20 -11 -8 -34 -24 -19 -26
-25 -13 -30 8 -3 28 -1 43 5 34 13 36 13 36 -1 0 -16 -47 -58 -56 -50 -4 3 -4
0 0 -7 8 -13 43 -11 80 4 14 5 17 3 14 -7 -3 -8 -13 -13 -22 -13 -9 1 -16 -4
-16 -11 0 -7 -10 -19 -21 -27 -20 -13 -20 -14 -3 -15 11 -1 36 -6 56 -11 26
-7 38 -6 41 2 2 6 8 8 12 3 12 -11 -8 -28 -36 -31 -26 -2 -71 -25 -51 -26 6 0
12 -7 12 -15 0 -11 7 -13 29 -9 16 3 37 2 47 -4 17 -10 17 -11 -6 -20 -14 -6
-38 -13 -53 -17 -24 -5 -26 -7 -14 -20 12 -12 40 -19 100 -24 4 -1 7 -6 7 -12
0 -6 -7 -9 -15 -6 -8 4 -17 2 -20 -3 -4 -6 -14 -10 -23 -10 -25 0 -26 -41 -1
-47 23 -6 24 -16 4 -33 -9 -7 -25 -10 -40 -6 -24 6 -25 5 -15 -15 7 -12 20
-23 29 -26 9 -2 23 -14 30 -25 12 -19 11 -20 -21 -15 -18 3 -45 9 -60 12 -17
5 -28 3 -28 -3 0 -5 11 -13 25 -16 15 -4 25 -14 25 -25 0 -25 -10 -32 -31 -21
-10 6 -27 6 -41 1 -22 -8 -22 -9 15 -27 34 -16 51 -44 27 -44 -5 0 -7 -7 -4
-15 5 -13 2 -14 -20 -5 -14 5 -33 7 -41 3 -12 -4 -15 0 -11 20 3 17 -1 27 -10
31 -9 4 -12 2 -8 -5 4 -6 0 -15 -7 -21 -11 -7 -10 -12 9 -25 12 -8 22 -22 22
-29 0 -8 -10 -14 -22 -14 -19 0 -20 -2 -8 -10 12 -8 11 -10 -7 -10 -13 0 -23
3 -23 8 0 4 -9 13 -21 20 -19 12 -19 11 -9 -8 6 -11 15 -20 20 -20 6 0 10 -9
10 -20 0 -29 -24 -25 -65 11 -46 41 -53 33 -13 -15 30 -37 31 -39 13 -52 -26
-19 -29 -18 -57 22 -33 46 -47 28 -22 -28 15 -34 16 -41 3 -49 -21 -13 -22
-12 -43 24 -21 37 -33 22 -18 -22 6 -16 8 -32 5 -35 -14 -13 -42 -5 -48 15
-10 29 -31 17 -27 -16 3 -25 -10 -44 -29 -45 -4 0 -10 11 -13 25 -4 14 -12 25
-20 25 -22 0 -38 -27 -31 -50 6 -18 3 -21 -12 -18 -10 2 -18 12 -18 23 0 13
-7 20 -20 20 -13 0 -20 -7 -20 -20 0 -11 -8 -21 -18 -23 -14 -3 -17 2 -15 24
2 15 -2 29 -9 31 -7 3 -11 -3 -8 -15 3 -15 -1 -18 -21 -14 -13 2 -24 10 -24
16 0 8 -12 11 -33 8 -27 -3 -35 1 -44 20 -9 18 -12 19 -12 6 -1 -25 -14 -22
-50 8 -35 29 -39 44 -14 44 9 0 13 3 10 7 -4 3 -2 12 4 20 20 24 2 14 -43 -23
-35 -30 -44 -34 -46 -20 -2 9 3 28 12 41 21 32 20 42 -2 22 -10 -10 -21 -14
-24 -11 -3 3 -9 0 -14 -7 -5 -8 -3 -10 7 -4 8 5 5 -2 -5 -14 -18 -19 -21 -20
-29 -6 -6 11 -4 20 6 28 8 7 17 21 21 32 6 16 2 15 -21 -8 -32 -30 -53 -35
-53 -12 0 8 4 15 10 15 5 0 14 9 20 21 11 20 11 20 -19 5 -41 -22 -43 -21 -35
21 6 33 5 36 -12 29 -30 -12 -36 -12 -41 2 -3 6 2 12 11 12 9 0 16 2 16 4 0 2
3 11 6 20 6 16 -18 16 -78 1 -18 -5 -28 -3 -28 4 0 6 4 11 10 11 16 0 101 68
91 74 -4 3 -23 1 -42 -4 -47 -14 -59 -13 -59 5 0 9 13 22 30 29 23 9 27 15 18
24 -7 7 -25 12 -40 12 -18 0 -28 5 -28 15 0 8 8 15 18 15 28 0 32 10 15 30 -9
10 -23 15 -34 13 -14 -4 -19 0 -19 16 0 14 6 21 19 21 10 0 24 6 30 14 10 12
6 15 -21 21 -47 10 -51 15 -32 36 10 12 31 19 53 20 35 1 35 1 9 10 -31 12
-44 38 -23 44 49 16 48 14 21 36 -34 26 -24 43 21 34 32 -6 34 -5 23 14 -6 11
-19 25 -29 30 -10 6 -21 17 -24 24 -4 11 2 12 34 3 45 -12 58 -3 41 25 -12 18
-11 21 7 26 20 5 26 20 21 52 -1 9 6 12 24 9 14 -3 23 -2 21 3 -3 4 0 11 5 14
8 5 6 13 -5 25 -18 20 -5 37 18 23 6 -4 18 -8 26 -10 8 -1 18 -8 23 -15 7 -9
8 -7 3 7 -4 11 -10 28 -12 38 -3 9 -9 17 -14 17 -5 0 -9 4 -9 10 0 9 9 8 48
-7 36 -13 47 -12 28 3 -11 8 -14 14 -7 14 7 0 9 5 6 10 -4 6 -10 8 -15 5 -4
-3 -6 4 -3 15 4 15 9 18 18 10 6 -5 15 -7 18 -3 4 3 13 0 22 -7 21 -17 32 -4
17 20 -7 11 -12 26 -12 34 0 7 -7 19 -15 26 -13 11 -20 9 -40 -10 -13 -13 -22
-27 -19 -31 3 -5 -2 -9 -12 -9 -50 0 -475 -479 -506 -570 -2 -7 -19 2 -43 24
l-39 36 2 173 c1 94 5 227 8 294 l7 121 -139 -49 c-145 -51 -334 -137 -334
-150 0 -10 120 -149 215 -249 40 -41 80 -87 90 -102 9 -16 24 -28 32 -28 22 0
86 -36 109 -62 85 -92 68 -238 -34 -296 -52 -29 -143 -30 -188 -3 -37 23 -67
69 -83 132 -17 62 -1 118 45 165 l36 35 -84 87 c-151 156 -378 444 -429 544
-11 21 -42 63 -69 93 -59 66 -71 108 -44 166 9 22 30 49 46 61 35 25 98 34
126 19 12 -7 23 -7 27 -2 8 14 120 48 197 62 63 10 70 9 108 -12 46 -26 40
-33 -36 -42 -28 -3 -92 -15 -141 -27 l-90 -21 5 -69 c5 -69 4 -70 -32 -106
-20 -20 -33 -41 -29 -47 3 -7 42 -61 87 -122 44 -60 81 -112 82 -113 1 -2 42
15 91 38 97 47 319 133 370 144 18 4 35 11 38 15 2 5 -22 50 -55 101 -33 52
-60 103 -60 114 0 25 3 22 80 -92 34 -51 64 -91 65 -90 2 2 8 52 15 112 6 61
12 114 13 120 1 6 -14 13 -33 16 -51 7 -48 36 3 32 20 -2 37 -1 37 1 0 8 39
205 46 233 6 22 4 24 -35 24 -39 0 -43 3 -57 36 -8 20 -13 38 -11 40 2 2 31 0
65 -4 l61 -9 12 51 c26 111 115 316 166 384 20 27 31 32 64 32 21 0 39 -2 39
-5 0 -2 -22 -38 -49 -80 -54 -82 -122 -246 -141 -338 -6 -32 -10 -60 -8 -61
13 -12 241 -80 272 -82 21 -1 42 -8 46 -14 6 -9 13 -4 23 16 8 16 24 38 36 48
21 19 21 19 21 -5 0 -13 -9 -39 -20 -57 -19 -31 -19 -33 -3 -38 10 -3 26 -10
36 -15 52 -28 67 -30 76 -7 l8 23 7 -22 c4 -11 14 -24 24 -27 9 -3 24 -9 32
-13 8 -3 -4 15 -27 40 -27 29 -40 52 -37 62 11 27 31 16 96 -51 77 -80 115
-100 185 -96 45 3 57 9 100 47 26 25 54 45 61 45 7 0 10 5 7 10 -3 6 3 10 14
10 11 0 19 6 17 13 -1 6 -1 9 1 5 7 -12 48 -9 61 4 9 9 12 8 12 -4 0 -9 -6
-18 -12 -20 -10 -4 -9 -9 3 -20 14 -14 20 -14 62 4 26 11 47 24 47 28 0 15
-102 136 -183 218 -87 88 -159 132 -214 132 -69 0 -153 -63 -245 -182 -56 -71
-64 -78 -75 -62 -18 25 -17 31 21 83 54 73 150 159 208 186 111 52 201 23 325
-104 63 -64 176 -203 202 -248 5 -9 31 -3 100 22 51 18 124 41 162 50 38 10
71 20 73 24 8 12 -80 265 -113 328 -125 233 -273 241 -489 26 -35 -35 -68 -63
-73 -63 -18 0 76 122 138 180 94 88 187 117 276 86z m1013 -127 c10 -17 -13
-36 -27 -22 -12 12 -4 33 11 33 5 0 12 -5 16 -11z m-1786 -30 c0 -5 -4 -9 -10
-9 -5 0 -10 7 -10 16 0 8 5 12 10 9 6 -3 10 -10 10 -16z m1420 -25 c73 -29
108 -111 83 -196 -31 -107 -170 -152 -253 -82 -75 64 -85 161 -23 235 49 58
118 73 193 43z m-2338 -19 c16 -36 0 -79 -31 -83 -65 -10 -99 33 -67 83 24 36
82 36 98 0z m224 -16 c10 -17 -13 -36 -27 -22 -12 12 -4 33 11 33 5 0 12 -5
16 -11z m1350 -46 c-10 -10 -19 5 -10 18 6 11 8 11 12 0 2 -7 1 -15 -2 -18z
m-619 -39 c-3 -3 -12 -4 -19 -1 -8 3 -5 6 6 6 11 1 17 -2 13 -5z m-2207 -24
c44 -44 12 -113 -52 -113 -56 0 -90 71 -50 105 37 33 75 35 102 8z m1608 8
c-6 -18 -28 -21 -28 -4 0 9 7 16 16 16 9 0 14 -5 12 -12z m482 -12 c0 -3 -4
-8 -10 -11 -5 -3 -10 -1 -10 4 0 6 5 11 10 11 6 0 10 -2 10 -4z m720 -20 c0
-3 -4 -8 -10 -11 -5 -3 -10 -1 -10 4 0 6 5 11 10 11 6 0 10 -2 10 -4z m1278
-19 c4 -21 -25 -34 -40 -19 -8 8 -8 16 2 27 16 19 34 15 38 -8z m-2223 3 c3
-5 1 -10 -4 -10 -6 0 -11 5 -11 10 0 6 2 10 4 10 3 0 8 -4 11 -10z m616 -29
c16 -16 29 -39 29 -50 0 -22 -20 -71 -29 -71 -3 0 -12 -4 -20 -9 -12 -8 -12
-12 -2 -25 19 -22 5 -64 -24 -78 -21 -9 -28 -8 -45 7 -24 22 -25 43 -5 72 14
20 14 23 -5 33 -32 17 -42 55 -26 94 26 62 80 73 127 27z m-2744 1 c6 -4 17
-21 23 -37 9 -24 8 -33 -8 -54 -39 -53 -122 -32 -122 31 0 50 65 87 107 60z
m3173 -22 c0 -5 -4 -10 -10 -10 -5 0 -10 5 -10 10 0 6 5 10 10 10 6 0 10 -4
10 -10z m-1955 -19 c7 -12 -12 -24 -25 -16 -11 7 -4 25 10 25 5 0 11 -4 15 -9z
m373 -15 c31 -16 74 -61 91 -93 16 -31 14 -109 -3 -142 -22 -42 -81 -89 -121
-97 -121 -22 -215 53 -215 173 0 65 39 125 105 161 28 16 111 15 143 -2z
m1728 -23 c-10 -10 -19 5 -10 18 6 11 8 11 12 0 2 -7 1 -15 -2 -18z m-3566
-21 c49 -40 16 -112 -51 -112 -45 0 -62 22 -57 73 5 51 66 73 108 39z m2400
-82 c0 -5 -7 -10 -15 -10 -8 0 -15 5 -15 10 0 6 7 10 15 10 8 0 15 -4 15 -10z
m-2632 -26 c22 -15 30 -66 14 -90 -14 -21 -52 -34 -77 -28 -62 15 -69 95 -11
120 40 17 47 17 74 -2z m4391 -7 c5 -13 11 -41 12 -63 3 -34 1 -39 -16 -36
-25 5 -21 -3 -28 65 -4 46 -3 57 9 57 8 0 18 -10 23 -23z m232 -70 c-13 -13
-26 -3 -16 12 3 6 11 8 17 5 6 -4 6 -10 -1 -17z m89 3 c0 -5 -4 -10 -10 -10
-5 0 -10 5 -10 10 0 6 5 10 10 10 6 0 10 -4 10 -10z m-4911 -71 c21 -37 7 -77
-31 -93 -17 -8 -39 -11 -50 -8 -29 7 -50 45 -42 76 14 58 95 75 123 25z m4594
-20 c57 -26 74 -108 31 -158 -33 -39 -80 -49 -128 -26 -44 21 -56 40 -58 96
-1 36 3 46 30 71 35 30 82 37 125 17z m878 -32 c41 -31 51 -100 21 -137 -12
-15 -33 -24 -64 -27 -40 -5 -50 -2 -72 20 -36 36 -36 98 -1 132 27 28 88 34
116 12z m-5687 -58 c50 -39 20 -113 -47 -113 -44 0 -67 18 -67 53 0 30 15 53
45 69 29 16 39 15 69 -9z m1713 -66 c-8 -16 -17 -39 -20 -53 -6 -24 -14 -27
-114 -44 -59 -10 -160 -34 -223 -53 -63 -20 -123 -36 -132 -37 -9 0 -14 -4
-12 -8 5 -7 -13 -12 -43 -11 -7 1 -10 -4 -6 -10 4 -6 -2 -8 -15 -5 -12 4 -20
2 -17 -2 3 -5 -5 -12 -17 -15 -79 -24 -398 -197 -536 -291 -80 -55 -102 -62
-119 -38 -17 24 -16 45 5 70 40 50 431 282 452 269 6 -3 10 -2 10 2 0 5 20 19
45 31 49 24 59 26 51 14 -4 -7 6 -8 45 -3 4 1 9 8 12 15 4 10 1 13 -9 9 -7 -3
-14 -9 -14 -15 0 -5 -5 -6 -12 -2 -8 5 1 14 27 25 22 10 43 15 47 13 4 -3 8
-1 8 5 0 13 97 44 111 35 7 -4 9 -3 6 3 -8 13 107 48 123 38 8 -5 11 -4 6 3
-7 12 -3 13 124 41 105 23 186 38 213 40 16 1 16 -2 4 -26z m-1889 -95 c28
-59 -39 -119 -96 -87 -36 19 -41 66 -12 97 31 33 90 28 108 -10z m2482 -2 c0
-3 -4 -8 -10 -11 -5 -3 -10 -1 -10 4 0 6 5 11 10 11 6 0 10 -2 10 -4z m-632
-58 c7 -7 12 -18 12 -26 0 -15 18 -36 40 -45 8 -3 2 -6 -15 -5 -42 0 -316 -74
-433 -118 -375 -140 -711 -364 -1015 -679 -124 -127 -301 -349 -361 -452 -26
-45 -46 -66 -83 -86 -27 -14 -67 -40 -88 -57 -21 -17 -40 -29 -42 -27 -5 6 83
161 140 247 80 118 190 261 265 341 230 248 375 372 637 547 84 56 395 217
395 204 0 -4 4 -2 8 4 20 30 366 138 523 163 3 1 10 -4 17 -11z m3207 -38 c3
-5 1 -10 -4 -10 -6 0 -11 5 -11 10 0 6 2 10 4 10 3 0 8 -4 11 -10z m-5245 -40
c26 -26 25 -51 -1 -84 -40 -51 -109 -26 -109 39 0 58 69 86 110 45z m6055 0
c3 -5 -1 -10 -9 -10 -9 0 -16 5 -16 10 0 6 4 10 9 10 6 0 13 -4 16 -10z
m-2275 -35 c0 -8 -4 -15 -10 -15 -5 0 -10 7 -10 15 0 8 5 15 10 15 6 0 10 -7
10 -15z m10 -50 c0 -8 -2 -15 -4 -15 -2 0 -6 7 -10 15 -3 8 -1 15 4 15 6 0 10
-7 10 -15z m-1142 -23 c2 -7 -3 -12 -12 -12 -9 0 -16 7 -16 16 0 17 22 14 28
-4z m-2818 -42 c27 -14 35 -65 16 -95 -13 -19 -25 -25 -54 -25 -52 0 -66 12
-66 56 0 58 54 91 104 64z m3795 0 c3 -5 1 -10 -4 -10 -6 0 -11 5 -11 10 0 6
2 10 4 10 3 0 8 -4 11 -10z m-1480 -25 c29 -28 31 -51 9 -83 -23 -34 -85 -28
-98 9 -12 36 -1 74 26 87 33 15 36 15 63 -13z m-1768 -80 c37 -25 63 -75 63
-124 0 -43 -2 -46 -146 -190 -459 -459 -722 -943 -844 -1551 -41 -201 -50
-322 -50 -643 l0 -279 -33 -33 c-41 -41 -93 -53 -145 -34 -29 11 -43 25 -62
64 l-25 50 0 310 c0 326 5 388 52 615 105 514 308 952 639 1380 103 133 385
426 429 446 35 16 87 12 122 -11z m5519 -26 c10 -17 -13 -36 -27 -22 -12 12
-4 33 11 33 5 0 12 -5 16 -11z m-726 -19 c0 -5 -4 -10 -9 -10 -6 0 -13 5 -16
10 -3 6 1 10 9 10 9 0 16 -4 16 -10z m-5470 -39 c15 -29 12 -67 -6 -85 -24
-24 -80 -20 -98 6 -34 48 -6 98 54 98 29 0 42 -5 50 -19z m3225 -31 c3 -6 -1
-13 -10 -16 -19 -8 -30 0 -20 15 8 14 22 14 30 1z m2095 -10 c0 -5 -4 -10 -10
-10 -5 0 -10 5 -10 10 0 6 5 10 10 10 6 0 10 -4 10 -10z m1218 -22 c18 -18 14
-53 -8 -73 -39 -35 -96 17 -70 65 12 23 58 28 78 8z m-718 -102 c0 -3 -4 -8
-10 -11 -5 -3 -10 -1 -10 4 0 6 5 11 10 11 6 0 10 -2 10 -4z m-6561 -75 c47
-24 99 -82 107 -119 3 -15 7 -33 10 -40 2 -7 -1 -36 -7 -64 -30 -140 -200
-200 -317 -112 -64 50 -88 115 -70 197 26 123 168 193 277 138z m4371 -26 c0
-17 -2 -18 -24 -9 -23 9 -20 24 4 24 11 0 20 -7 20 -15z m-3880 -47 c11 -12
20 -31 20 -42 0 -17 -2 -18 -10 -6 -8 13 -10 12 -10 -2 0 -10 -3 -18 -6 -18
-4 0 -13 8 -21 18 -7 9 -13 13 -12 7 4 -26 -3 -35 -26 -35 -14 0 -25 -5 -25
-12 0 -26 -12 3 -16 40 -4 34 -1 43 18 56 31 22 64 20 88 -6z m6020 -12 c0 -3
-4 -8 -10 -11 -5 -3 -10 -1 -10 4 0 6 5 11 10 11 6 0 10 -2 10 -4z m-6067 -93
c-7 -2 -19 -2 -25 0 -7 3 -2 5 12 5 14 0 19 -2 13 -5z m-70 -95 c9 -11 17 -28
17 -38 0 -24 -31 -58 -55 -61 -39 -6 -74 10 -81 37 -19 74 69 120 119 62z
m6327 12 c0 -5 -5 -10 -11 -10 -5 0 -7 5 -4 10 3 6 8 10 11 10 2 0 4 -4 4 -10z
m-4042 -52 c31 -31 3 -98 -40 -98 -26 0 -58 27 -58 49 0 48 66 81 98 49z
m4652 -83 c28 -34 -16 -84 -47 -53 -14 14 -15 22 -5 43 13 28 33 32 52 10z
m-610 -15 c0 -5 -4 -10 -10 -10 -5 0 -10 5 -10 10 0 6 5 10 10 10 6 0 10 -4
10 -10z m-6448 -67 c22 -20 23 -70 1 -95 -19 -22 -85 -24 -102 -4 -26 31 -19
87 13 108 20 13 69 8 88 -9z m-321 -25 c22 -12 39 -25 39 -30 0 -5 -24 -68
-54 -141 -294 -721 -351 -1488 -166 -2260 32 -135 112 -376 158 -477 27 -59
29 -67 16 -90 -21 -38 -62 -85 -69 -78 -16 16 -93 210 -145 368 -205 617 -242
1292 -105 1925 44 208 130 489 187 614 17 36 43 94 59 129 15 34 31 62 35 62
3 0 24 -10 45 -22z m2899 -108 c0 -5 -4 -10 -10 -10 -5 0 -10 5 -10 10 0 6 5
10 10 10 6 0 10 -4 10 -10z m-2687 -71 c29 -16 37 -28 37 -61 0 -34 -35 -68
-71 -68 -30 0 -69 40 -69 70 0 26 39 70 61 70 11 0 30 -5 42 -11z m7007 1 c0
-5 -4 -10 -10 -10 -5 0 -10 5 -10 10 0 6 5 10 10 10 6 0 10 -4 10 -10z m-4122
-12 c-3 -7 -11 -13 -18 -13 -7 0 -15 6 -17 13 -3 7 4 12 17 12 13 0 20 -5 18
-12z m1854 -33 c0 -5 -5 -11 -11 -13 -6 -2 -11 4 -11 13 0 9 5 15 11 13 6 -2
11 -8 11 -13z m-2911 -68 c157 -54 295 -164 373 -297 41 -69 45 -93 27 -158
l-12 -43 73 -82 c41 -45 93 -106 117 -135 51 -62 48 -69 -38 -97 l-54 -17 7
-63 c5 -53 4 -64 -10 -69 -16 -6 -16 -8 0 -24 9 -11 16 -35 16 -57 0 -21 10
-69 22 -106 19 -59 20 -71 8 -98 -18 -43 -56 -61 -133 -61 -142 0 -312 67
-406 159 -104 104 -154 232 -155 403 -1 60 -5 100 -9 92 -5 -8 -12 -12 -17 -9
-4 3 -21 -26 -36 -63 -26 -60 -29 -78 -29 -177 0 -106 1 -112 37 -186 26 -52
58 -97 100 -140 63 -63 63 -63 16 -31 -128 88 -208 243 -208 405 0 73 24 195
46 239 19 36 18 46 -2 22 -14 -18 -15 -17 -11 16 l4 35 -49 -55 c-56 -63 -102
-152 -119 -231 -14 -64 -6 -198 16 -260 23 -65 -2 -32 -27 37 -19 48 -23 79
-23 174 0 100 4 126 28 195 15 44 43 105 62 135 28 45 31 56 19 63 -8 5 -11
13 -8 19 4 7 2 8 -4 4 -9 -5 -9 -13 -1 -27 9 -18 8 -19 -10 -8 -16 11 -24 9
-55 -14 -41 -32 -118 -136 -143 -193 -9 -22 -24 -70 -34 -109 l-17 -70 -1 57
c-2 108 39 231 110 335 19 26 33 51 31 56 -1 4 2 7 8 7 6 0 6 9 0 26 -7 16 -7
23 0 19 6 -3 10 3 10 15 0 21 0 21 -42 -2 -68 -38 -191 -165 -224 -233 -27
-56 -29 -68 -29 -181 l0 -121 42 -84 c63 -126 138 -197 286 -276 78 -40 81
-47 20 -45 -67 3 -232 109 -320 206 -131 143 -197 403 -154 606 18 86 89 233
141 293 143 162 329 239 565 233 98 -2 134 -7 196 -29z m909 -102 c0 -8 -7
-15 -15 -15 -16 0 -20 12 -8 23 11 12 23 8 23 -8z m3605 -5 c3 -5 -1 -10 -9
-10 -9 0 -16 5 -16 10 0 6 4 10 9 10 6 0 13 -4 16 -10z m-3045 -21 c0 -5 -4
-9 -10 -9 -5 0 -10 7 -10 16 0 8 5 12 10 9 6 -3 10 -10 10 -16z m3769 -190
c42 -42 43 -95 2 -141 -25 -28 -36 -33 -76 -33 -42 0 -51 4 -76 35 -61 73 -17
169 78 170 33 0 48 -6 72 -31z m-1219 -39 c0 -5 -4 -10 -10 -10 -5 0 -10 5
-10 10 0 6 5 10 10 10 6 0 10 -4 10 -10z m-1950 -20 c0 -5 -2 -10 -4 -10 -3 0
-8 5 -11 10 -3 6 -1 10 4 10 6 0 11 -4 11 -10z m2110 -21 c0 -5 -4 -9 -10 -9
-5 0 -10 7 -10 16 0 8 5 12 10 9 6 -3 10 -10 10 -16z m-1456 -191 c53 -68 123
-152 156 -187 61 -65 71 -81 46 -81 -15 0 -153 136 -169 166 -5 11 -22 33 -37
49 -38 43 -110 149 -110 163 0 28 23 5 114 -110z m331 98 c40 -17 75 -68 75
-109 0 -68 -54 -117 -131 -117 -33 0 -47 6 -75 34 -29 29 -34 41 -34 80 0 68
47 117 118 125 7 0 28 -5 47 -13z m375 -5 c0 -6 -34 -52 -75 -104 -53 -66 -87
-100 -115 -112 -22 -10 -42 -16 -45 -14 -9 10 197 239 216 239 10 0 19 -4 19
-9z m1490 -96 c0 -8 -7 -15 -15 -15 -8 0 -15 7 -15 15 0 8 7 15 15 15 8 0 15
-7 15 -15z m-3927 -51 c-3 -8 -11 -14 -18 -14 -18 0 -26 25 -12 39 14 14 38
-5 30 -25z m1231 21 c14 0 27 -24 60 -115 50 -138 102 -237 175 -332 49 -65
52 -71 37 -86 -22 -23 -40 -11 -104 74 -67 88 -144 244 -177 358 -25 88 -32
131 -17 111 4 -6 15 -11 26 -10z m1500 -90 c0 -94 -31 -189 -114 -360 -108
-222 -206 -323 -486 -495 -101 -62 -162 -108 -225 -170 -97 -95 -122 -132
-234 -340 -133 -249 -211 -357 -369 -515 -223 -223 -423 -340 -795 -466 -63
-21 -112 -37 -110 -35 2 2 54 37 114 77 76 50 151 113 243 203 l132 129 0 53
0 53 -61 -35 c-33 -18 -73 -42 -87 -53 -15 -10 -70 -40 -122 -68 -91 -47 -138
-69 -529 -244 -287 -129 -455 -240 -644 -427 -305 -301 -441 -591 -470 -1002
-2 -25 -4 2 -5 60 -5 358 138 748 389 1060 70 87 233 255 334 343 100 87 392
262 805 482 280 149 474 281 610 415 164 162 249 294 345 539 36 92 81 194
101 226 99 166 225 261 577 436 162 80 179 82 185 20 7 -66 -81 -153 -252
-249 -42 -23 -76 -47 -76 -52 0 -29 218 6 304 49 139 69 208 144 253 273 20
60 39 94 69 126 37 39 46 43 80 40 l39 -3 -1 -70z m-4822 -259 c11 -30 12 -53
5 -95 -9 -58 -3 -499 8 -561 3 -19 10 -57 15 -83 15 -72 14 -74 -37 -97 -25
-11 -47 -19 -48 -18 -1 2 -9 41 -18 88 -50 257 -48 613 5 889 l22 113 17 -98
c9 -55 23 -117 31 -138z m5747 193 c11 -17 32 -76 47 -130 27 -96 27 -99 9
-119 -38 -42 -89 -18 -101 48 -4 20 -18 65 -30 100 -37 97 -29 132 28 132 21
0 33 -8 47 -31z m702 -214 c15 -157 6 -522 -16 -705 -91 -737 -392 -1475 -816
-1999 -458 -566 -1023 -960 -1743 -1215 -283 -100 -557 -162 -891 -201 -151
-18 -639 -21 -780 -5 -205 23 -499 73 -637 107 l-146 37 5 55 c3 31 7 57 8 59
1 1 46 -9 101 -23 520 -133 1107 -168 1589 -95 438 65 886 211 1245 406 255
138 459 277 706 481 316 263 649 689 845 1083 225 454 369 963 409 1455 12
139 9 490 -5 630 l-5 50 52 41 53 41 7 -36 c3 -20 12 -94 19 -166z m-4019 170
c0 -5 -5 -11 -11 -13 -6 -2 -11 4 -11 13 0 9 5 15 11 13 6 -2 11 -8 11 -13z
m-3432 -95 c33 0 52 -69 30 -110 -22 -41 -102 -31 -120 16 -18 47 26 110 68
98 8 -2 17 -4 22 -4z m3772 -47 c37 -33 11 -103 -38 -103 -25 0 -54 34 -54 62
0 23 35 58 57 58 9 0 25 -7 35 -17z m-2064 -198 c-3 -3 -9 2 -12 12 -6 14 -5
15 5 6 7 -7 10 -15 7 -18z m2450 -2 c4 -29 -28 -47 -53 -29 -12 9 -15 19 -10
35 9 30 59 26 63 -6z m1918 5 l27 -13 -6 -155 c-7 -168 -22 -272 -68 -450 -49
-196 -143 -445 -162 -433 -6 3 -7 1 -3 -5 9 -15 -62 -165 -74 -157 -6 4 -7 -1
-3 -11 5 -13 3 -15 -7 -9 -9 5 -11 4 -6 -4 17 -26 -209 -354 -339 -490 -321
-340 -610 -530 -1039 -688 -301 -110 -477 -143 -793 -150 l-223 -5 0 48 0 49
198 1 c219 2 316 15 533 69 285 71 561 193 800 356 31 21 59 35 63 32 3 -4 6
-1 6 5 0 13 89 78 102 74 5 -1 7 2 4 7 -5 8 16 23 36 25 3 1 10 5 15 10 5 5 2
6 -7 2 -8 -4 -5 2 8 13 13 11 31 18 40 15 14 -5 15 -4 2 5 -12 8 -8 13 20 25
19 8 28 16 20 16 -11 0 -9 4 5 13 11 6 25 12 30 12 6 0 10 5 10 10 0 19 16 35
27 29 7 -4 8 -2 4 4 -4 6 1 20 11 30 115 120 205 233 307 387 36 55 69 105 74
110 4 6 20 38 36 72 16 34 33 60 38 57 4 -3 5 2 2 10 -3 9 -1 16 6 16 6 0 9 4
6 9 -3 4 3 27 14 49 11 23 20 45 20 50 0 5 9 21 21 36 11 14 17 30 14 36 -3 5
-2 10 4 10 13 0 27 26 36 69 4 21 4 31 -3 27 -5 -3 0 26 11 64 11 38 24 67 29
64 5 -3 6 6 2 22 -5 18 -3 25 3 21 7 -4 13 8 16 31 3 20 13 78 21 127 9 50 21
169 26 265 6 96 12 181 15 188 6 15 36 16 71 0z m-6068 -18 c46 -43 15 -120
-48 -120 -64 0 -91 70 -45 115 29 30 64 32 93 5z m1128 -70 l35 -46 5 -139 c2
-77 10 -171 17 -208 l14 -68 -48 -24 c-26 -14 -50 -21 -54 -16 -24 41 -53 400
-40 516 6 63 8 68 21 50 8 -11 30 -40 50 -65z m5116 64 c27 -17 -6 -408 -47
-564 -8 -30 -13 -41 -10 -23 6 42 -11 53 -20 13 -4 -16 -10 -30 -15 -30 -20 0
-19 -33 2 -52 15 -13 19 -21 11 -24 -7 -3 -10 -11 -7 -19 3 -7 -11 -62 -31
-122 -95 -279 -222 -532 -384 -758 -378 -529 -955 -909 -1621 -1066 -171 -41
-487 -68 -707 -60 l-43 1 0 45 0 45 138 0 c152 1 206 4 367 26 480 63 992 292
1362 609 118 101 353 347 361 377 2 6 34 53 71 102 88 120 136 198 204 331 64
127 187 432 187 464 0 11 5 21 11 21 5 0 8 4 4 10 -3 5 3 47 14 92 34 139 61
356 61 482 l0 119 42 -7 c22 -4 45 -9 50 -12z m489 -149 c72 -38 84 -119 54
-352 -40 -302 -119 -591 -237 -864 -270 -621 -753 -1154 -1372 -1509 -173
-100 -385 -192 -614 -269 -549 -183 -1174 -209 -1780 -72 -130 30 -345 93
-370 109 -10 7 -4 32 24 113 53 153 41 142 127 113 286 -98 537 -141 888 -151
465 -14 884 68 1321 258 373 161 621 330 908 618 96 97 212 224 258 283 324
418 526 921 587 1468 19 164 23 188 43 218 32 49 106 66 163 37z m-6723 -91
c29 -20 30 -76 2 -104 -28 -28 -84 -27 -104 2 -50 71 31 152 102 102z m2282
-61 c0 -14 -70 -125 -118 -187 -70 -91 -191 -215 -237 -241 -22 -13 -115 -56
-207 -94 -197 -84 -338 -149 -338 -157 0 -3 5 -2 10 1 6 3 10 -1 10 -9 0 -15
5 -17 28 -15 12 1 20 -45 9 -58 -5 -7 64 23 154 66 586 283 866 350 1305 316
110 -8 268 -22 353 -30 302 -29 526 -16 776 44 44 11 81 18 83 16 6 -6 -105
-94 -194 -153 -128 -86 -271 -164 -563 -309 -391 -193 -566 -300 -785 -481
-301 -249 -580 -639 -697 -977 -18 -49 -40 -113 -50 -141 -49 -137 -63 -230
-63 -434 1 -172 4 -210 27 -321 49 -231 109 -379 232 -564 56 -84 209 -251
265 -289 14 -9 -11 2 -55 25 -122 63 -161 93 -270 203 -197 199 -310 419 -360
706 -18 100 -20 308 -4 400 6 36 11 72 11 80 1 25 37 171 64 252 14 43 22 83
18 89 -4 7 -3 9 3 6 14 -8 35 44 39 91 1 21 7 36 13 35 6 -2 22 18 35 45 19
38 21 49 11 59 -10 9 -15 9 -17 1 -5 -13 -28 -2 -28 13 0 6 4 8 9 5 5 -4 7 3
4 14 -3 11 -1 20 5 20 9 0 92 103 92 114 0 8 -80 -81 -133 -147 -26 -31 -44
-63 -41 -71 3 -8 1 -17 -5 -21 -7 -4 -8 0 -4 11 30 80 -138 -170 -216 -319
-60 -115 -144 -337 -167 -442 -26 -121 -24 -334 5 -450 26 -109 49 -172 97
-267 43 -88 30 -79 -20 12 -103 191 -156 491 -126 726 49 394 252 768 657
1211 152 166 447 416 665 563 53 36 95 66 93 68 -8 9 -256 -97 -410 -175 -211
-107 -458 -282 -634 -449 -126 -120 -322 -352 -391 -464 -219 -351 -324 -733
-291 -1052 25 -239 81 -415 183 -573 11 -16 -14 5 -55 47 -113 117 -201 300
-248 518 -19 90 -21 123 -16 259 8 239 58 410 210 716 35 72 154 251 211 319
23 26 58 69 80 95 21 25 92 101 158 168 117 119 136 151 82 140 -21 -4 -22 -2
-12 11 11 13 11 14 -2 7 -100 -57 -305 -224 -422 -342 -200 -202 -357 -425
-440 -625 -18 -44 -34 -75 -36 -69 -7 21 73 246 120 339 65 129 140 238 251
367 436 507 1047 846 1935 1071 l153 39 -123 3 c-339 9 -675 -43 -995 -152
-285 -98 -432 -170 -676 -333 -191 -128 -256 -181 -405 -331 -215 -218 -387
-486 -465 -727 -82 -253 -104 -437 -72 -630 8 -49 13 -91 11 -92 -10 -10 -58
158 -71 248 -43 298 -3 549 132 823 23 48 43 92 43 96 0 4 29 55 65 114 36 58
65 108 65 111 0 3 -5 5 -11 5 -5 0 -8 -4 -4 -9 3 -5 1 -12 -5 -16 -5 -3 -10 1
-10 10 0 9 -7 23 -15 31 -13 14 -17 14 -31 0 -14 -15 -32 -18 -109 -21 -43 -1
-49 4 -29 26 9 11 15 22 11 25 -18 18 -139 -194 -181 -316 -36 -107 -35 -42 3
86 73 254 177 447 359 664 149 178 302 310 562 485 80 53 160 111 179 128 55
52 145 167 189 242 23 39 45 76 49 83 6 10 30 10 120 0 89 -9 135 -9 225 1
118 14 268 48 328 74 39 17 60 21 60 10z m4871 -181 c50 -42 15 -122 -54 -122
-40 0 -67 26 -67 64 0 36 7 48 35 64 29 17 60 14 86 -6z m-7121 -20 c17 -13
23 -29 22 -53 -2 -92 -142 -91 -142 1 0 61 71 91 120 52z m6137 -144 c-3 -8
-6 -5 -6 6 -1 11 2 17 5 13 3 -3 4 -12 1 -19z m943 -88 c41 -41 7 -120 -52
-120 -26 0 -68 44 -68 72 0 62 76 92 120 48z m-7041 -14 c23 -18 32 -55 19
-79 -27 -52 -75 -61 -113 -22 -66 66 20 159 94 101z m6975 -237 c58 -46 10
-131 -69 -120 -28 3 -55 38 -55 71 0 33 40 70 75 70 12 0 34 -9 49 -21z
m-6916 -5 c47 -32 9 -124 -52 -124 -29 0 -66 42 -66 76 0 54 70 82 118 48z
m74 -231 c30 -34 31 -61 4 -88 -29 -29 -52 -31 -84 -9 -26 18 -30 74 -6 98 21
21 67 20 86 -1z m6777 -35 c44 -79 -75 -149 -125 -73 -34 51 5 108 69 103 33
-2 45 -9 56 -30z m-112 -240 c66 -61 -20 -155 -95 -102 -27 19 -30 78 -5 106
22 25 71 23 100 -4z m-109 -238 c27 -26 28 -64 2 -90 -24 -24 -77 -26 -102 -3
-22 20 -23 70 -1 95 22 24 74 23 101 -2z m-6401 -92 c-3 -8 -6 -5 -6 6 -1 11
2 17 5 13 3 -3 4 -12 1 -19z m6273 -128 c26 -26 25 -51 -1 -84 -55 -69 -154 9
-103 82 20 29 76 30 104 2z m-144 -215 c9 -14 14 -28 10 -32 -3 -3 -6 -1 -6 5
0 7 -9 21 -20 32 -11 11 -16 20 -10 20 5 0 17 -11 26 -25z m-104 -49 c2 -19 0
-32 -4 -30 -8 5 -12 64 -4 64 2 0 6 -15 8 -34z m-4611 -143 c-8 -15 -10 -15
-11 -2 0 17 10 32 18 25 2 -3 -1 -13 -7 -23z m1391 -49 c75 -53 110 -165 77
-251 -13 -35 -64 -90 -103 -110 -32 -17 -119 -20 -157 -5 -70 28 -128 111
-129 183 -1 169 181 276 312 183z m2760 -351 c33 -30 12 -109 -23 -87 -8 4 -9
3 -5 -4 11 -18 -50 -15 -68 4 -21 20 -20 63 1 86 20 22 70 23 95 1z m-412
-303 c27 -27 25 -56 -5 -85 -45 -46 -105 -24 -105 37 0 62 67 91 110 48z
m-263 -106 c-3 -3 -12 -4 -19 -1 -8 3 -5 6 6 6 11 1 17 -2 13 -5z m-44 -54
c-6 -44 7 -54 25 -17 6 12 11 16 11 10 1 -7 10 -13 21 -13 12 0 20 -7 21 -17
1 -17 2 -17 6 0 2 9 11 17 18 17 19 0 8 -28 -16 -40 -27 -15 -66 -12 -83 6
-21 20 -21 94 0 94 1 0 0 -18 -3 -40z m-838 -270 c-4 -6 1 -7 11 -3 42 16 62
-83 22 -111 -28 -20 -72 -21 -87 -2 -16 19 -17 82 -1 101 15 18 34 20 25 3 -3
-7 0 -5 7 5 13 18 34 24 23 7z m-201 -61 c26 -20 35 -61 18 -85 -10 -15 -47
-34 -66 -34 -26 0 -56 38 -56 69 0 30 38 71 65 71 7 0 24 -9 39 -21z m-984 -3
c0 -2 -13 -9 -30 -15 -35 -12 -41 -5 -7 9 25 10 37 12 37 6z m60 -66 c0 -10
-9 -28 -20 -41 l-20 -24 17 33 c17 31 17 33 0 65 l-17 32 20 -24 c11 -13 20
-31 20 -41z m690 40 c55 -55 -7 -142 -77 -108 -22 10 -29 21 -31 52 -4 46 19
76 60 76 15 0 37 -9 48 -20z m-240 -12 c26 -28 26 -72 0 -98 -62 -62 -149 33
-88 97 27 29 61 29 88 1z m-546 -87 c-2 -3 -12 3 -22 13 -16 17 -16 18 5 5 12
-7 20 -15 17 -18z"/>
<path d="M5925 8308 c-10 -31 -42 -228 -36 -228 3 0 53 -7 111 -15 58 -8 110
-15 117 -15 9 0 103 140 103 154 0 5 -267 116 -279 116 -7 0 -14 -6 -16 -12z
m145 -108 c0 -5 -4 -10 -10 -10 -5 0 -10 5 -10 10 0 6 5 10 10 10 6 0 10 -4
10 -10z"/>
<path d="M7435 8308 c-104 -36 -235 -91 -235 -98 0 -4 21 -42 47 -85 45 -73
48 -76 77 -71 17 3 70 11 119 17 102 14 98 5 69 154 -18 97 -23 102 -77 83z
m-10 -97 c7 -12 -12 -24 -25 -16 -11 7 -4 25 10 25 5 0 11 -4 15 -9z"/>
<path d="M7075 8156 c-137 -73 -164 -93 -158 -116 3 -11 10 -20 15 -20 5 0 6
-5 2 -12 -4 -6 -3 -8 4 -4 7 4 8 17 2 39 -8 28 -8 30 4 15 7 -10 18 -18 25
-18 6 0 11 -5 11 -11 0 -5 5 -7 10 -4 6 3 10 2 10 -4 0 -5 -9 -13 -21 -16 -11
-4 -18 -9 -16 -11 2 -3 49 4 103 15 55 11 116 22 137 26 20 3 37 9 37 13 0 6
-76 142 -84 149 -1 1 -37 -17 -81 -41z m-75 -66 c0 -5 -7 -10 -16 -10 -8 0
-12 5 -9 10 3 6 10 10 16 10 5 0 9 -4 9 -10z"/>
<path d="M6220 8123 c-19 -38 -36 -71 -38 -74 -1 -3 48 -16 109 -28 102 -21
113 -21 128 -7 14 15 13 16 -7 16 -13 0 -21 4 -18 9 4 5 18 5 36 -2 16 -6 32
-8 36 -4 11 11 -27 43 -69 58 -20 7 -39 19 -42 27 -3 10 0 12 10 8 8 -3 15 -3
15 -1 0 4 -115 65 -123 65 -1 0 -18 -30 -37 -67z"/>
<path d="M5875 8026 c-6 -28 -24 -210 -20 -214 1 -1 42 5 91 15 l89 17 35 75
c19 40 36 77 38 82 3 8 -13 12 -146 33 -81 13 -82 13 -87 -8z"/>
<path d="M7435 8034 c-44 -8 -90 -18 -102 -22 l-22 -7 37 -84 37 -85 89 -18
c48 -11 89 -18 91 -16 1 2 -4 55 -11 118 -7 63 -13 118 -13 123 -1 9 -8 8
-106 -9z"/>
<path d="M6125 7928 c-18 -40 -32 -74 -31 -75 1 -1 60 3 131 10 72 6 122 13
113 15 -20 4 -24 17 -8 27 18 11 11 25 -12 25 -22 1 -21 2 5 16 15 8 33 12 40
8 8 -5 9 -4 2 3 -8 8 -170 43 -198 43 -5 0 -23 -33 -42 -72z"/>
<path d="M6428 7993 c7 -3 16 -2 19 1 4 3 -2 6 -13 5 -11 0 -14 -3 -6 -6z"/>
<path d="M7095 7975 c-78 -15 -108 -24 -85 -25 19 -1 43 -2 52 -1 27 3 60 -19
54 -35 -3 -8 -1 -14 4 -14 6 0 10 -4 10 -10 0 -5 -15 -11 -32 -11 -39 -2 39
-13 150 -23 84 -7 84 -8 45 81 -33 73 -23 71 -198 38z"/>
<path d="M7105 7784 c22 -20 92 -87 155 -149 l115 -114 22 22 21 22 -33 105
-33 105 -108 17 c-60 9 -125 19 -144 22 l-35 4 40 -34z"/>
<path d="M6230 7799 c12 -8 10 -9 -9 -4 -33 10 -128 -4 -145 -20 -24 -24 -77
-205 -66 -225 7 -13 5 -21 -5 -30 -8 -7 -15 -17 -15 -22 0 -5 61 51 135 124
74 73 135 140 135 149 0 8 5 20 12 27 9 9 4 12 -22 12 -27 0 -32 -3 -20 -11z"/>
<path d="M5975 7765 c-5 -1 -36 -8 -67 -15 -51 -10 -58 -14 -58 -35 0 -16 17
-37 51 -67 27 -23 53 -44 57 -45 4 -2 17 30 30 70 13 39 25 78 28 85 5 11 -16
15 -41 7z"/>
<path d="M7428 7683 c14 -49 26 -90 28 -92 2 -2 31 20 64 49 49 43 59 56 54
74 -4 11 -7 22 -8 23 -2 2 -155 33 -162 33 0 0 10 -39 24 -87z"/>
<path d="M5835 7545 c-4 -66 -5 -151 -3 -189 l3 -69 56 74 c50 65 57 81 62
133 l6 58 -59 57 -59 56 -6 -120z"/>
<path d="M7516 7599 l-57 -51 6 -47 c4 -25 8 -56 10 -67 3 -21 115 -197 121
-191 5 5 -12 397 -18 402 -2 3 -30 -18 -62 -46z"/>
<path d="M7402 7511 c-9 -6 -8 -12 8 -26 20 -18 24 -13 12 17 -4 11 -12 14
-20 9z"/>
<path d="M8271 6777 c-71 -86 -167 -163 -392 -315 -52 -35 -83 -61 -69 -58
263 60 408 105 523 163 46 23 48 26 41 56 -9 44 -44 148 -58 174 -11 21 -12
21 -45 -20z"/>
<path d="M7100 6761 c0 -12 28 -22 35 -12 3 5 -2 12 -11 15 -21 8 -24 8 -24
-3z"/>
<path d="M7487 6520 c-38 -10 -70 -20 -72 -21 -1 -2 -17 -39 -33 -83 l-31 -78
77 6 c144 12 152 15 153 44 0 15 2 55 5 90 6 72 9 71 -99 42z"/>
<path d="M5840 6448 l0 -85 68 -6 c89 -9 142 -9 142 0 0 4 -12 38 -27 75 -28
74 -33 77 -140 94 l-43 7 0 -85z"/>
<path d="M7215 6479 c-81 -9 -145 -28 -145 -42 0 -6 -3 -8 -6 -4 -4 3 -32 -10
-63 -30 -31 -20 -85 -52 -121 -71 -36 -19 -67 -36 -69 -38 -5 -4 339 -172 362
-176 13 -2 28 16 57 70 l41 72 -88 0 c-87 1 -124 12 -116 37 3 7 -9 13 -29 16
-19 2 -8 4 28 5 33 1 102 5 153 9 l93 6 24 55 c14 31 27 66 30 79 6 22 3 23
-37 22 -24 -1 -75 -5 -114 -10z"/>
<path d="M5855 6215 c8 -95 24 -217 29 -223 5 -4 230 75 269 95 l27 14 -41 77
c-23 42 -46 82 -51 87 -5 6 -61 15 -124 20 l-116 10 7 -80z m57 -10 c0 -5 -5
-11 -11 -13 -6 -2 -11 4 -11 13 0 9 5 15 11 13 6 -2 11 -8 11 -13z"/>
<path d="M7495 6285 c-5 -2 -49 -7 -97 -10 l-87 -7 -46 -85 c-26 -47 -43 -89
-38 -93 10 -9 295 -121 298 -118 4 5 34 191 41 256 l7 62 -34 -1 c-19 0 -38
-2 -44 -4z m35 -80 c0 -8 -7 -15 -16 -15 -14 0 -14 3 -4 15 7 8 14 15 16 15 2
0 4 -7 4 -15z"/>
<path d="M4760 7876 c0 -2 8 -10 18 -17 15 -13 16 -12 3 4 -13 16 -21 21 -21
13z"/>
<path d="M3445 5910 c-24 -25 -27 -32 -15 -43 10 -9 12 -9 6 1 -4 6 -2 12 3
12 6 0 11 5 11 12 0 6 7 20 17 30 27 30 9 20 -22 -12z"/>
<path d="M7782 4745 c0 -16 2 -22 5 -12 2 9 2 23 0 30 -3 6 -5 -1 -5 -18z"/>
<path d="M3285 4740 c-3 -6 1 -7 9 -4 18 7 21 14 7 14 -6 0 -13 -4 -16 -10z"/>
<path d="M2994 4154 c-18 -14 -18 -15 4 -4 12 6 22 13 22 15 0 8 -5 6 -26 -11z"/>
<path d="M2749 3793 c-13 -16 -12 -17 4 -4 16 13 21 21 13 21 -2 0 -10 -8 -17
-17z"/>
<path d="M2700 3770 c-13 -8 -13 -10 2 -10 9 0 20 5 23 10 8 13 -5 13 -25 0z"/>
<path d="M3176 3508 c3 -5 10 -6 15 -3 13 9 11 12 -6 12 -8 0 -12 -4 -9 -9z"/>
<path d="M3526 3153 c-6 -14 -5 -15 5 -6 7 7 10 15 7 18 -3 3 -9 -2 -12 -12z"/>
<path d="M2879 2993 c-13 -16 -12 -17 4 -4 16 13 21 21 13 21 -2 0 -10 -8 -17
-17z"/>
<path d="M2829 2953 c-13 -16 -12 -17 4 -4 16 13 21 21 13 21 -2 0 -10 -8 -17
-17z"/>
<path d="M2784 2919 c-19 -22 -19 -22 4 -8 12 8 22 17 22 21 0 12 -6 9 -26
-13z"/>
<path d="M2696 2841 c-23 -24 -34 -41 -27 -45 11 -7 12 -6 15 15 0 7 10 15 21
20 11 4 16 8 11 8 -5 1 -1 10 9 21 32 36 10 21 -29 -19z"/>
<path d="M2629 2773 c-13 -16 -12 -17 4 -4 16 13 21 21 13 21 -2 0 -10 -8 -17
-17z"/>
<path d="M7429 2473 c-13 -17 -13 -17 6 -3 11 8 22 16 24 17 2 2 0 3 -6 3 -6
0 -17 -8 -24 -17z"/>
<path d="M7488 2483 c7 -3 16 -2 19 1 4 3 -2 6 -13 5 -11 0 -14 -3 -6 -6z"/>
<path d="M7031 2174 c0 -11 3 -14 6 -6 3 7 2 16 -1 19 -3 4 -6 -2 -5 -13z"/>
</g>
</svg>
